<svg xmlns="http://www.w3.org/2000/svg" viewBox="0 0 80.11 124.48"><title>Asset 1</title><g id="Layer_2" data-name="Layer 2"><g id="Layer_1-2" data-name="Layer 1"><path d="M37,3.4a3.1,3.1,0,1,1,6.16,0V9.68a3.1,3.1,0,1,1-6.16,0Z"/><path d="M74.6,25.27a3.26,3.26,0,0,1-4.58.22,3.27,3.27,0,0,1,.22-4.59l4.45-4.43a3.26,3.26,0,0,1,4.58-.22A3.26,3.26,0,0,1,79,20.83Z"/><path d="M10.09,25.49a3.26,3.26,0,0,1-4.59-.23L1.06,20.83a3.27,3.27,0,0,1-.22-4.59,3.26,3.26,0,0,1,4.58.23l4.44,4.44A3.27,3.27,0,0,1,10.09,25.49Z"/><path d="M23.84,16.31a3.27,3.27,0,0,1-4.15-2l-2.4-5.8a3.26,3.26,0,0,1,1.54-4.32,3.26,3.26,0,0,1,4.15,2L25.39,12A3.28,3.28,0,0,1,23.84,16.31Z"/><path d="M60.42,14.34A3.1,3.1,0,1,1,54.72,12l2.41-5.8a3.26,3.26,0,0,1,4.14-2,3.26,3.26,0,0,1,1.55,4.32Z"/><path d="M32.62,46a7.29,7.29,0,0,1,7.26-7.26A7.16,7.16,0,0,1,47,46a7,7,0,0,1-7.11,7.12A7.17,7.17,0,0,1,32.62,46Zm1.85,57.91V63H45.14v41Z"/><path d="M25,94.37c-4.35-.17-6.53-3.81-6.53-8.81V42.45H7.61V87.84c0,10.24,5.12,16.08,15.37,16.08.69,0,1.34,0,2-.08Z"/><path d="M76.74,94.22a9.76,9.76,0,0,1-1.73.16c-4.55,0-6.83-3.7-6.83-8.82V72.34h8.56V63H68.18V42.45H57.36V63H52.5v9.39h4.86v15.5c0,10.24,5.13,16.08,15.37,16.08a24.65,24.65,0,0,0,4-.31Z"/><path d="M10.79,124.31v-7.77H8v-1h6.63v1H11.88v7.77Z"/><path d="M23.88,124.31v-4H18.76v4H17.68v-8.74h1.08v3.76h5.12v-3.76H25v8.74Z"/><path d="M28.58,124.31v-8.74h1.09v8.74Z"/><path d="M39.48,124.31l-5.1-7v7H33.29v-8.74h1.12l5,6.83v-6.83h1.09v8.74Z"/><path d="M49.43,124.31l-3.32-3.93-.88,1v2.93H44.15v-8.74h1.08v4.51l3.87-4.51h1.36l-3.64,4.14,4,4.6Z"/><path d="M53.6,124.31v-8.74h1.09v8.74Z"/><path d="M64.49,124.31l-5.1-7v7H58.3v-8.74h1.12l5,6.83v-6.83h1.09v8.74Z"/><path d="M68.81,120a4.37,4.37,0,0,1,4.49-4.53,4.18,4.18,0,0,1,3.4,1.63l-.87.55a3.22,3.22,0,0,0-2.53-1.21,3.56,3.56,0,0,0,0,7.11,3.46,3.46,0,0,0,2.36-.94v-1.77h-3v-1h4.09V123a4.53,4.53,0,0,1-3.44,1.52A4.38,4.38,0,0,1,68.81,120Z"/></g></g></svg>