<?xml version="1.0" encoding="utf-8"?>
<!-- Generator: Adobe Illustrator 24.0.2, SVG Export Plug-In . SVG Version: 6.00 Build 0)  -->
<svg version="1.1" id="Layer_1" xmlns="http://www.w3.org/2000/svg" xmlns:xlink="http://www.w3.org/1999/xlink" x="0px" y="0px"
	 viewBox="0 0 80.1 124.5" style="enable-background:new 0 0 80.1 124.5;" xml:space="preserve">
<style type="text/css">
	.st0{fill:#FFFFFF;}
</style>
<title>Asset 1</title>
<g id="Layer_2_1_">
	<g id="Layer_1-2">
		<path class="st0" d="M37,3.4c-0.2-1.7,1-3.2,2.7-3.4s3.2,1,3.4,2.7c0,0.2,0,0.5,0,0.7v6.3c0.2,1.7-1,3.2-2.7,3.4
			c-1.7,0.2-3.2-1-3.4-2.7c0-0.2,0-0.5,0-0.7V3.4z"/>
		<path class="st0" d="M74.6,25.3c-1.2,1.3-3.3,1.4-4.6,0.2c-1.2-1.3-1.1-3.4,0.2-4.6l4.4-4.4c1.2-1.3,3.3-1.4,4.6-0.2
			c1.2,1.3,1.1,3.4-0.3,4.6L74.6,25.3z"/>
		<path class="st0" d="M10.1,25.5c-1.3,1.2-3.4,1.1-4.6-0.2l-4.4-4.4c-1.3-1.2-1.4-3.3-0.2-4.6c1.3-1.2,3.4-1.1,4.6,0.2l4.4,4.4
			C11.2,22.1,11.3,24.2,10.1,25.5z"/>
		<path class="st0" d="M23.8,16.3c-1.7,0.6-3.6-0.3-4.1-2l-2.4-5.8c-0.8-1.6-0.1-3.5,1.5-4.3c1.7-0.6,3.6,0.3,4.1,2l2.4,5.8
			C26.1,13.6,25.4,15.5,23.8,16.3z"/>
		<path class="st0" d="M60.4,14.3c-0.5,1.6-2.2,2.6-3.8,2.1s-2.6-2.2-2.1-3.8c0.1-0.2,0.2-0.4,0.3-0.6l2.4-5.8
			c0.6-1.7,2.4-2.6,4.1-2c1.6,0.8,2.3,2.7,1.5,4.3L60.4,14.3z"/>
		<path class="st0" d="M32.6,46c0-4,3.3-7.2,7.3-7.3c4,0,7.1,3.2,7.1,7.2c0,0,0,0,0,0.1c0.1,3.9-3,7.1-6.9,7.1c-0.1,0-0.2,0-0.2,0
			C35.9,53.2,32.7,50,32.6,46C32.6,46,32.6,46,32.6,46z M34.5,103.9V63h10.7v41L34.5,103.9z"/>
		<path class="st0" d="M25,94.4c-4.4-0.2-6.5-3.8-6.5-8.8V42.5H7.6v45.4c0,10.2,5.1,16.1,15.4,16.1c0.7,0,1.3,0,2-0.1L25,94.4z"/>
		<path class="st0" d="M76.7,94.2c-0.6,0.1-1.1,0.2-1.7,0.2c-4.6,0-6.8-3.7-6.8-8.8V72.3h8.6V63h-8.6V42.5H57.4V63h-4.9v9.4h4.9
			v15.5c0,10.2,5.1,16.1,15.4,16.1c1.3,0,2.7-0.1,4-0.3L76.7,94.2z"/>
		<path class="st0" d="M10.8,124.3v-7.8H8v-1h6.6v1h-2.8v7.8H10.8z"/>
		<path class="st0" d="M23.9,124.3v-4h-5.1v4h-1.1v-8.7h1.1v3.8h5.1v-3.8H25v8.7H23.9z"/>
		<path class="st0" d="M28.6,124.3v-8.7h1.1v8.7H28.6z"/>
		<path class="st0" d="M39.5,124.3l-5.1-7v7h-1.1v-8.7h1.1l5,6.8v-6.8h1.1v8.7H39.5z"/>
		<path class="st0" d="M49.4,124.3l-3.3-3.9l-0.9,1v2.9h-1.1v-8.7h1.1v4.5l3.9-4.5h1.4l-3.6,4.1l4,4.6H49.4z"/>
		<path class="st0" d="M53.6,124.3v-8.7h1.1v8.7H53.6z"/>
		<path class="st0" d="M64.5,124.3l-5.1-7v7h-1.1v-8.7h1.1l5,6.8v-6.8h1.1v8.7H64.5z"/>
		<path class="st0" d="M68.8,120c-0.1-2.4,1.8-4.4,4.2-4.5c0.1,0,0.2,0,0.3,0c1.3,0,2.6,0.6,3.4,1.6l-0.9,0.6
			c-0.6-0.8-1.5-1.2-2.5-1.2c-2,0.1-3.5,1.8-3.4,3.7c0.1,1.8,1.5,3.3,3.4,3.4c0.9,0,1.7-0.3,2.4-0.9v-1.8h-3v-1h4.1v3.2
			c-0.9,1-2.1,1.5-3.4,1.5c-2.4,0.1-4.4-1.8-4.5-4.3C68.8,120.2,68.8,120.1,68.8,120z"/>
	</g>
</g>
</svg>
